<?xml version="1.0" encoding="UTF-8"?>
<!DOCTYPE svg PUBLIC "-//W3C//DTD SVG 1.1//EN" "http://www.w3.org/Graphics/SVG/1.1/DTD/svg11.dtd">
<svg xmlns="http://www.w3.org/2000/svg" version="1.1" width="500px" height="500px" style="shape-rendering:geometricPrecision; text-rendering:geometricPrecision; image-rendering:optimizeQuality; fill-rule:evenodd; clip-rule:evenodd" xmlns:xlink="http://www.w3.org/1999/xlink">
<g><path style="opacity:1" fill="#112130" d="M 150.5,108.5 C 218.167,108.5 285.833,108.5 353.5,108.5C 358.49,110.272 363.49,111.939 368.5,113.5C 367.526,115.085 366.026,116.085 364,116.5C 363.517,115.552 363.351,114.552 363.5,113.5C 357.792,113.492 357.459,113.992 362.5,115C 360.102,115.025 357.769,115.859 355.5,117.5C 356.5,118.333 357.5,119.167 358.5,120C 357.551,120.617 356.718,120.451 356,119.5C 355.626,120.416 355.126,121.25 354.5,122C 351.529,122.794 348.529,123.461 345.5,124C 347.708,124.191 349.708,124.691 351.5,125.5C 346.833,125.5 342.167,125.5 337.5,125.5C 334.5,125.5 331.5,125.5 328.5,125.5C 276.833,125.5 225.167,125.5 173.5,125.5C 170.167,125.5 166.833,125.5 163.5,125.5C 157.435,125.261 151.435,125.761 145.5,127C 142.894,127.792 140.894,129.292 139.5,131.5C 138.508,131.328 137.842,131.662 137.5,132.5C 135.806,133.527 134.473,134.861 133.5,136.5C 132.325,136.281 131.325,136.614 130.5,137.5C 129.537,140.065 128.204,142.398 126.5,144.5C 126.709,145.086 127.043,145.586 127.5,146C 126.33,149.897 125.164,153.397 124,156.5C 123.187,153.018 121.521,152.685 119,155.5C 116.901,154.869 115.068,153.869 113.5,152.5C 112.788,135.421 119.788,122.588 134.5,114C 139.86,111.85 145.193,110.017 150.5,108.5 Z"/></g>
<g><path style="opacity:1" fill="#183540" d="M 173.5,125.5 C 225.167,125.5 276.833,125.5 328.5,125.5C 328.5,125.833 328.5,126.167 328.5,126.5C 328.5,142.5 328.5,158.5 328.5,174.5C 328.333,193.503 328.5,212.503 329,231.5C 332.687,239.241 338.521,241.574 346.5,238.5C 347.873,238.657 349.207,238.49 350.5,238C 351.705,236.624 353.038,235.458 354.5,234.5C 355.833,234.5 357.167,234.5 358.5,234.5C 358.5,238.5 358.5,242.5 358.5,246.5C 352.833,246.5 347.167,246.5 341.5,246.5C 337.517,244.194 333.517,241.861 329.5,239.5C 328.23,248.575 332.23,253.575 341.5,254.5C 342.167,254.5 342.833,254.5 343.5,254.5C 343.5,281.5 343.5,308.5 343.5,335.5C 346.5,335.5 349.5,335.5 352.5,335.5C 352.5,309.167 352.5,282.833 352.5,256.5C 354.833,256.5 357.167,256.5 359.5,256.5C 359.5,282.833 359.5,309.167 359.5,335.5C 359.842,336.338 360.508,336.672 361.5,336.5C 360.992,338.233 360.159,338.566 359,337.5C 358.5,310.835 358.333,284.169 358.5,257.5C 356.833,257.5 355.167,257.5 353.5,257.5C 353.172,283.741 353.505,309.908 354.5,336C 353.5,337 352.5,338 351.5,339C 356.322,339.07 361.322,339.403 366.5,340C 362.167,340.333 357.833,340.667 353.5,341C 360.158,341.5 366.825,341.666 373.5,341.5C 374.5,341.5 375.5,341.5 376.5,341.5C 376.795,343.735 376.461,345.735 375.5,347.5C 375.5,345.833 375.5,344.167 375.5,342.5C 358.83,342.667 342.163,342.5 325.5,342C 325,341.5 324.5,341 324,340.5C 323.667,304.833 323.333,269.167 323,233.5C 310.275,203.716 297.275,174.05 284,144.5C 280.626,138.887 276.626,138.221 272,142.5C 255.452,177.596 239.452,212.929 224,248.5C 220.902,256.462 222.402,263.296 228.5,269C 243.833,269.333 259.167,269.667 274.5,270C 275.931,270.465 277.097,271.299 278,272.5C 278.667,296.167 278.667,319.833 278,343.5C 277.768,344.737 277.268,345.737 276.5,346.5C 274.961,342.665 272.294,341.331 268.5,342.5C 269.148,340.914 269.648,339.247 270,337.5C 270.667,322.167 270.667,306.833 270,291.5C 268.387,285.553 264.553,282.053 258.5,281C 238.833,280.667 219.167,280.333 199.5,280C 198.748,279.329 198.414,278.496 198.5,277.5C 212.313,278.615 225.979,278.782 239.5,278C 238.346,277.086 238.513,276.253 240,275.5C 242.897,277.997 245.731,277.83 248.5,275C 246.939,274.682 245.772,273.849 245,272.5C 240.651,271.805 236.485,271.805 232.5,272.5C 232.172,270.921 230.672,270.254 228,270.5C 226.615,270.514 225.449,270.848 224.5,271.5C 221.236,270.073 218.736,267.739 217,264.5C 216.5,248.837 216.333,233.17 216.5,217.5C 216.5,202.167 216.5,186.833 216.5,171.5C 214.833,171.5 213.167,171.5 211.5,171.5C 217.438,165.504 218.938,158.504 216,150.5C 208.512,142.083 200.512,141.416 192,148.5C 189.868,152.208 189.035,156.208 189.5,160.5C 187.962,157.587 187.296,154.587 187.5,151.5C 186.643,152.736 185.977,154.069 185.5,155.5C 185.946,157.368 186.279,159.201 186.5,161C 182.748,161.976 182.082,161.31 184.5,159C 183.167,157.667 181.833,156.333 180.5,155C 182.612,154.094 183.445,152.594 183,150.5C 182.257,152.645 181.424,152.811 180.5,151C 184.917,147.487 185.583,143.32 182.5,138.5C 183.167,137.833 183.833,137.167 184.5,136.5C 183.167,135.5 183.167,134.5 184.5,133.5C 183.5,132.667 182.5,131.833 181.5,131C 181.833,130.667 182.167,130.333 182.5,130C 180.58,128.878 178.58,128.044 176.5,127.5C 176.055,131.091 175.055,134.424 173.5,137.5C 173.5,133.5 173.5,129.5 173.5,125.5 Z"/></g>
<g><path style="opacity:1" fill="#16333e" d="M 163.5,125.5 C 163.5,126.167 163.833,126.5 164.5,126.5C 164.5,136.167 164.5,145.833 164.5,155.5C 164.667,171.17 164.5,186.837 164,202.5C 163.365,203.966 162.531,205.3 161.5,206.5C 155.537,207.496 149.537,207.829 143.5,207.5C 141.61,207.703 140.11,207.037 139,205.5C 138.502,202.518 138.335,199.518 138.5,196.5C 135.833,196.5 133.167,196.5 130.5,196.5C 131.807,195.198 131.807,193.865 130.5,192.5C 131.949,191.828 133.282,191.161 134.5,190.5C 136.167,190.5 137.833,190.5 139.5,190.5C 139.5,170.833 139.5,151.167 139.5,131.5C 140.894,129.292 142.894,127.792 145.5,127C 151.435,125.761 157.435,125.261 163.5,125.5 Z"/></g>
<g><path style="opacity:1" fill="#16333e" d="M 189.5,160.5 C 190.428,167.028 194.094,171.028 200.5,172.5C 202.607,173.468 204.941,173.802 207.5,173.5C 207.168,207.004 207.502,240.338 208.5,273.5C 214.271,274.113 219.604,273.446 224.5,271.5C 225.449,270.848 226.615,270.514 228,270.5C 230.672,270.254 232.172,270.921 232.5,272.5C 236.485,271.805 240.651,271.805 245,272.5C 245.772,273.849 246.939,274.682 248.5,275C 245.731,277.83 242.897,277.997 240,275.5C 238.513,276.253 238.346,277.086 239.5,278C 225.979,278.782 212.313,278.615 198.5,277.5C 198.5,243.833 198.5,210.167 198.5,176.5C 195.419,175.462 192.419,174.128 189.5,172.5C 189.44,171.957 189.107,171.624 188.5,171.5C 187.17,207.664 187.17,243.664 188.5,279.5C 188.668,284.673 191.002,288.506 195.5,291C 216.167,291.333 236.833,291.667 257.5,292C 258,292.5 258.5,293 259,293.5C 259.499,297.152 259.665,300.818 259.5,304.5C 233.491,304.833 207.491,304.5 181.5,303.5C 181.192,302.692 180.692,302.025 180,301.5C 179.667,278.5 179.333,255.5 179,232.5C 176.768,227.269 172.935,223.769 167.5,222C 157.506,221.5 147.506,221.334 137.5,221.5C 134.359,220.679 131.025,220.179 127.5,220C 129.366,216.145 130.033,212.312 129.5,208.5C 130.584,210.815 132.251,212.648 134.5,214C 137.482,214.498 140.482,214.665 143.5,214.5C 151.84,214.666 160.173,214.5 168.5,214C 170.734,212.362 172.067,210.195 172.5,207.5C 173.498,184.339 173.831,161.006 173.5,137.5C 175.055,134.424 176.055,131.091 176.5,127.5C 178.58,128.044 180.58,128.878 182.5,130C 182.167,130.333 181.833,130.667 181.5,131C 182.5,131.833 183.5,132.667 184.5,133.5C 183.167,134.5 183.167,135.5 184.5,136.5C 183.833,137.167 183.167,137.833 182.5,138.5C 185.583,143.32 184.917,147.487 180.5,151C 181.424,152.811 182.257,152.645 183,150.5C 183.445,152.594 182.612,154.094 180.5,155C 181.833,156.333 183.167,157.667 184.5,159C 182.082,161.31 182.748,161.976 186.5,161C 186.279,159.201 185.946,157.368 185.5,155.5C 185.977,154.069 186.643,152.736 187.5,151.5C 187.296,154.587 187.962,157.587 189.5,160.5 Z"/></g>
<g><path style="opacity:0.757" fill="#020a14" d="M 353.5,108.5 C 374.736,109.734 387.736,120.734 392.5,141.5C 389.466,134.439 385.632,127.772 381,121.5C 377.37,117.939 373.203,115.272 368.5,113.5C 363.49,111.939 358.49,110.272 353.5,108.5 Z"/></g>
<g><path style="opacity:1" fill="#f6f7f8" d="M 375.5,347.5 C 375.5,347.833 375.5,348.167 375.5,348.5C 374.751,349.531 374.085,350.698 373.5,352C 356.167,352.667 338.833,352.667 321.5,352C 317.51,350.01 315.01,346.843 314,342.5C 313.667,307.5 313.333,272.5 313,237.5C 307.725,225.949 302.725,214.283 298,202.5C 291.924,201.524 285.758,201.19 279.5,201.5C 279.333,215.504 279.5,229.504 280,243.5C 286.419,244.313 292.919,244.813 299.5,245C 301.96,246.458 304.127,248.291 306,250.5C 306.5,262.162 306.667,273.829 306.5,285.5C 303.167,285.5 299.833,285.5 296.5,285.5C 296.5,281.5 296.5,277.5 296.5,273.5C 296.666,267.158 296.5,260.825 296,254.5C 289.247,253.686 282.414,253.186 275.5,253C 272.572,251.74 270.739,249.573 270,246.5C 269.333,230.833 269.333,215.167 270,199.5C 270.786,196.417 272.619,194.251 275.5,193C 281.196,192.83 286.862,192.33 292.5,191.5C 289.687,185.376 287.02,179.21 284.5,173C 279.249,172.196 274.082,172.363 269,173.5C 256.139,201.6 243.972,229.933 232.5,258.5C 247.504,258.333 262.504,258.5 277.5,259C 282.96,261.158 286.793,264.991 289,270.5C 289.5,281.495 289.667,292.495 289.5,303.5C 289.667,318.837 289.5,334.17 289,349.5C 287.441,356.387 283.608,361.554 277.5,365C 234.894,366.484 192.227,366.984 149.5,366.5C 139.295,364.629 132.962,358.629 130.5,348.5C 129.842,319.814 130.508,291.48 132.5,263.5C 135.643,264.134 138.143,265.8 140,268.5C 140.333,293.167 140.667,317.833 141,342.5C 142.282,348.113 145.449,352.28 150.5,355C 190.167,355.667 229.833,355.667 269.5,355C 273.143,353.195 275.476,350.362 276.5,346.5C 277.268,345.737 277.768,344.737 278,343.5C 278.667,319.833 278.667,296.167 278,272.5C 277.097,271.299 275.931,270.465 274.5,270C 259.167,269.667 243.833,269.333 228.5,269C 222.402,263.296 220.902,256.462 224,248.5C 239.452,212.929 255.452,177.596 272,142.5C 276.626,138.221 280.626,138.887 284,144.5C 297.275,174.05 310.275,203.716 323,233.5C 323.333,269.167 323.667,304.833 324,340.5C 324.5,341 325,341.5 325.5,342C 342.163,342.5 358.83,342.667 375.5,342.5C 375.5,344.167 375.5,345.833 375.5,347.5 Z"/></g>
<g><path style="opacity:1" fill="#fafbfb" d="M 211.5,171.5 C 210.391,171.557 209.391,171.89 208.5,172.5C 205.833,172.5 203.167,172.5 200.5,172.5C 194.094,171.028 190.428,167.028 189.5,160.5C 189.035,156.208 189.868,152.208 192,148.5C 200.512,141.416 208.512,142.083 216,150.5C 218.938,158.504 217.438,165.504 211.5,171.5 Z"/></g>
<g><path style="opacity:0.039" fill="#000202" d="M 112.5,144.5 C 112.167,212.335 112.501,280.002 113.5,347.5C 115.816,368.484 127.149,381.817 147.5,387.5C 147.5,387.833 147.5,388.167 147.5,388.5C 127.392,384.224 115.559,371.89 112,351.5C 111.168,282.332 111.335,213.332 112.5,144.5 Z"/></g>
<g><path style="opacity:1" fill="#15303d" d="M 337.5,125.5 C 342.167,125.5 346.833,125.5 351.5,125.5C 363.988,126.817 372.155,133.484 376,145.5C 376.5,179.165 376.667,212.832 376.5,246.5C 373.833,246.5 371.167,246.5 368.5,246.5C 368.5,223.167 368.5,199.833 368.5,176.5C 365.5,176.5 362.5,176.5 359.5,176.5C 358.833,195.338 358.167,214.338 357.5,233.5C 356.702,233.043 356.369,232.376 356.5,231.5C 356.5,230.5 356.5,229.5 356.5,228.5C 357.497,211.341 357.83,194.008 357.5,176.5C 354.287,176.19 351.287,176.523 348.5,177.5C 348.667,194.17 348.5,210.837 348,227.5C 346.951,229.384 345.451,230.718 343.5,231.5C 340.642,231.972 338.642,230.972 337.5,228.5C 337.5,194.167 337.5,159.833 337.5,125.5 Z"/></g>
<g><path style="opacity:1" fill="#2f4c51" d="M 137.5,132.5 C 137.842,131.662 138.508,131.328 139.5,131.5C 139.5,151.167 139.5,170.833 139.5,190.5C 137.833,190.5 136.167,190.5 134.5,190.5C 132.833,190.5 131.167,190.5 129.5,190.5C 129.17,174.658 129.504,158.991 130.5,143.5C 130.5,158.833 130.5,174.167 130.5,189.5C 133.167,189.5 135.833,189.5 138.5,189.5C 138.83,170.326 138.497,151.326 137.5,132.5 Z"/></g>
<g><path style="opacity:1" fill="#d6dfd8" d="M 350.5,145.5 C 353.352,145.302 356.019,145.635 358.5,146.5C 356.964,151.953 355.631,157.453 354.5,163C 355.097,164.628 354.763,166.295 353.5,168C 350.691,168.312 348.024,167.812 345.5,166.5C 341.693,161.021 341.526,155.355 345,149.5C 346.451,147.536 348.284,146.203 350.5,145.5 Z"/></g>
<g><path style="opacity:1" fill="#c4d0ca" d="M 345.5,166.5 C 348.024,167.812 350.691,168.312 353.5,168C 354.763,166.295 355.097,164.628 354.5,163C 355.631,157.453 356.964,151.953 358.5,146.5C 356.019,145.635 353.352,145.302 350.5,145.5C 358.681,141.521 365.181,143.521 370,151.5C 372.293,166.1 366.126,172.6 351.5,171C 348.894,170.208 346.894,168.708 345.5,166.5 Z"/></g>
<g><path style="opacity:1" fill="#75b3a0" d="M 164.5,126.5 C 167.167,126.5 169.833,126.5 172.5,126.5C 172.5,131.833 172.5,137.167 172.5,142.5C 171.528,146.568 170.028,150.568 168,154.5C 166.989,155.337 165.822,155.67 164.5,155.5C 164.5,145.833 164.5,136.167 164.5,126.5 Z"/></g>
<g><path style="opacity:1" fill="#64aa98" d="M 328.5,126.5 C 331.167,126.5 333.833,126.5 336.5,126.5C 336.5,133.5 336.5,140.5 336.5,147.5C 335.804,155.871 334.304,164.537 332,173.5C 331.073,176.706 329.907,177.039 328.5,174.5C 328.5,158.5 328.5,142.5 328.5,126.5 Z"/></g>
<g><path style="opacity:1" fill="#336967" d="M 328.5,126.5 C 328.5,126.167 328.5,125.833 328.5,125.5C 331.5,125.5 334.5,125.5 337.5,125.5C 337.5,159.833 337.5,194.167 337.5,228.5C 336.502,201.672 336.169,174.672 336.5,147.5C 336.5,140.5 336.5,133.5 336.5,126.5C 333.833,126.5 331.167,126.5 328.5,126.5 Z"/></g>
<g><path style="opacity:1" fill="#112130" d="M 368.5,113.5 C 373.203,115.272 377.37,117.939 381,121.5C 385.632,127.772 389.466,134.439 392.5,141.5C 393.657,211.805 393.824,282.138 393,352.5C 392.258,360.974 389.091,368.308 383.5,374.5C 383.565,374.062 383.399,373.728 383,373.5C 377.905,379.263 371.739,383.429 364.5,386C 365.094,386.464 365.761,386.631 366.5,386.5C 365.791,387.404 364.791,387.737 363.5,387.5C 359.057,387.277 354.39,387.277 349.5,387.5C 282.167,387.5 214.833,387.5 147.5,387.5C 217.332,386.667 287.332,386.167 357.5,386C 357.167,385.667 356.833,385.333 356.5,385C 358.75,384.389 360.417,383.056 361.5,381C 361.043,380.586 360.709,380.086 360.5,379.5C 361.833,378.833 363.167,378.167 364.5,377.5C 364.291,376.914 363.957,376.414 363.5,376C 361.236,375.764 359.069,375.264 357,374.5C 356.586,374.957 356.086,375.291 355.5,375.5C 354.417,374.635 354.251,373.635 355,372.5C 356.073,373.28 357.24,373.113 358.5,372C 357.322,371.033 355.989,370.533 354.5,370.5C 355.602,369.824 356.602,369.158 357.5,368.5C 357.5,368.167 357.5,367.833 357.5,367.5C 363.033,366.734 367.699,364.4 371.5,360.5C 372.636,356.787 373.97,352.787 375.5,348.5C 375.5,348.167 375.5,347.833 375.5,347.5C 376.461,345.735 376.795,343.735 376.5,341.5C 375.5,341.5 374.5,341.5 373.5,341.5C 374.209,340.596 375.209,340.263 376.5,340.5C 375.926,311.976 375.926,283.976 376.5,256.5C 376.5,253.167 376.5,249.833 376.5,246.5C 376.667,212.832 376.5,179.165 376,145.5C 372.155,133.484 363.988,126.817 351.5,125.5C 349.708,124.691 347.708,124.191 345.5,124C 348.529,123.461 351.529,122.794 354.5,122C 355.126,121.25 355.626,120.416 356,119.5C 356.718,120.451 357.551,120.617 358.5,120C 357.5,119.167 356.5,118.333 355.5,117.5C 357.769,115.859 360.102,115.025 362.5,115C 357.459,113.992 357.792,113.492 363.5,113.5C 363.351,114.552 363.517,115.552 364,116.5C 366.026,116.085 367.526,115.085 368.5,113.5 Z"/></g>
<g><path style="opacity:1" fill="#3c7870" d="M 163.5,125.5 C 166.833,125.5 170.167,125.5 173.5,125.5C 173.5,129.5 173.5,133.5 173.5,137.5C 173.831,161.006 173.498,184.339 172.5,207.5C 172.5,185.833 172.5,164.167 172.5,142.5C 172.5,137.167 172.5,131.833 172.5,126.5C 169.833,126.5 167.167,126.5 164.5,126.5C 163.833,126.5 163.5,126.167 163.5,125.5 Z"/></g>
<g><path style="opacity:1" fill="#91bcb0" d="M 137.5,132.5 C 138.497,151.326 138.83,170.326 138.5,189.5C 135.833,189.5 133.167,189.5 130.5,189.5C 130.5,174.167 130.5,158.833 130.5,143.5C 130.688,140.794 131.688,138.461 133.5,136.5C 134.473,134.861 135.806,133.527 137.5,132.5 Z"/></g>
<g><path style="opacity:1" fill="#f7f9f9" d="M 189.5,172.5 C 192.419,174.128 195.419,175.462 198.5,176.5C 198.5,210.167 198.5,243.833 198.5,277.5C 198.414,278.496 198.748,279.329 199.5,280C 219.167,280.333 238.833,280.667 258.5,281C 264.553,282.053 268.387,285.553 270,291.5C 270.667,306.833 270.667,322.167 270,337.5C 269.648,339.247 269.148,340.914 268.5,342.5C 267.038,343.458 265.705,344.624 264.5,346C 228.167,346.667 191.833,346.667 155.5,346C 152.533,343.9 150.7,341.066 150,337.5C 149.5,327.506 149.334,317.506 149.5,307.5C 153.167,307.5 156.833,307.5 160.5,307.5C 160.334,316.173 160.5,324.84 161,333.5C 161.833,334.333 162.667,335.167 163.5,336C 194.839,336.833 226.172,336.667 257.5,335.5C 258.462,328.892 258.795,322.226 258.5,315.5C 230.831,315.667 203.165,315.5 175.5,315C 171.263,311.986 169.096,307.819 169,302.5C 168.667,279.833 168.333,257.167 168,234.5C 167.167,233.667 166.333,232.833 165.5,232C 153.505,231.5 141.505,231.333 129.5,231.5C 129.5,228.5 129.5,225.5 129.5,222.5C 131.948,221.527 134.615,221.194 137.5,221.5C 147.506,221.334 157.506,221.5 167.5,222C 172.935,223.769 176.768,227.269 179,232.5C 179.333,255.5 179.667,278.5 180,301.5C 180.692,302.025 181.192,302.692 181.5,303.5C 207.491,304.5 233.491,304.833 259.5,304.5C 259.665,300.818 259.499,297.152 259,293.5C 258.5,293 258,292.5 257.5,292C 236.833,291.667 216.167,291.333 195.5,291C 191.002,288.506 188.668,284.673 188.5,279.5C 188.168,243.663 188.502,207.996 189.5,172.5 Z"/></g>
<g><path style="opacity:1" fill="#296861" d="M 359.5,177.5 C 359.5,177.167 359.5,176.833 359.5,176.5C 362.5,176.5 365.5,176.5 368.5,176.5C 368.5,199.833 368.5,223.167 368.5,246.5C 367.502,223.673 367.169,200.673 367.5,177.5C 364.833,177.5 362.167,177.5 359.5,177.5 Z"/></g>
<g><path style="opacity:1" fill="#39907f" d="M 359.5,177.5 C 362.167,177.5 364.833,177.5 367.5,177.5C 367.169,200.673 367.502,223.673 368.5,246.5C 371.167,246.5 373.833,246.5 376.5,246.5C 376.5,249.833 376.5,253.167 376.5,256.5C 373.833,256.5 371.167,256.5 368.5,256.5C 367.502,282.661 367.169,308.995 367.5,335.5C 364.833,335.5 362.167,335.5 359.5,335.5C 359.5,309.167 359.5,282.833 359.5,256.5C 357.167,256.5 354.833,256.5 352.5,256.5C 352.5,253.833 352.5,251.167 352.5,248.5C 352.5,248.167 352.5,247.833 352.5,247.5C 354.833,247.5 357.167,247.5 359.5,247.5C 359.5,224.167 359.5,200.833 359.5,177.5 Z"/></g>
<g><path style="opacity:1" fill="#19343f" d="M 296.5,273.5 C 295.371,274.47 294.371,275.636 293.5,277C 295.512,278.152 295.678,279.318 294,280.5C 293.282,279.549 292.449,279.383 291.5,280C 290.268,286.849 290.268,294.016 291.5,301.5C 291.145,302.522 290.478,303.189 289.5,303.5C 289.667,292.495 289.5,281.495 289,270.5C 286.793,264.991 282.96,261.158 277.5,259C 262.504,258.5 247.504,258.333 232.5,258.5C 243.972,229.933 256.139,201.6 269,173.5C 274.082,172.363 279.249,172.196 284.5,173C 287.02,179.21 289.687,185.376 292.5,191.5C 286.862,192.33 281.196,192.83 275.5,193C 272.619,194.251 270.786,196.417 270,199.5C 269.333,215.167 269.333,230.833 270,246.5C 270.739,249.573 272.572,251.74 275.5,253C 282.414,253.186 289.247,253.686 296,254.5C 296.5,260.825 296.666,267.158 296.5,273.5 Z"/></g>
<g><path style="opacity:0.731" fill="#051521" d="M 150.5,108.5 C 145.193,110.017 139.86,111.85 134.5,114C 119.788,122.588 112.788,135.421 113.5,152.5C 113.5,217.5 113.5,282.5 113.5,347.5C 112.501,280.002 112.167,212.335 112.5,144.5C 115.74,122.594 128.407,110.594 150.5,108.5 Z"/></g>
<g><path style="opacity:1" fill="#4b9988" d="M 336.5,147.5 C 336.169,174.672 336.502,201.672 337.5,228.5C 338.642,230.972 340.642,231.972 343.5,231.5C 342.791,232.404 341.791,232.737 340.5,232.5C 339.5,237.5 341.5,239.5 346.5,238.5C 338.521,241.574 332.687,239.241 329,231.5C 328.5,212.503 328.333,193.503 328.5,174.5C 329.907,177.039 331.073,176.706 332,173.5C 334.304,164.537 335.804,155.871 336.5,147.5 Z"/></g>
<g><path style="opacity:1" fill="#1b3f43" d="M 359.5,176.5 C 359.5,176.833 359.5,177.167 359.5,177.5C 359.5,200.833 359.5,224.167 359.5,247.5C 357.167,247.5 354.833,247.5 352.5,247.5C 348.833,247.5 345.167,247.5 341.5,247.5C 341.5,247.167 341.5,246.833 341.5,246.5C 347.167,246.5 352.833,246.5 358.5,246.5C 358.5,242.5 358.5,238.5 358.5,234.5C 357.167,234.5 355.833,234.5 354.5,234.5C 354.932,233.29 355.599,232.29 356.5,231.5C 356.369,232.376 356.702,233.043 357.5,233.5C 358.167,214.338 358.833,195.338 359.5,176.5 Z"/></g>
<g><path style="opacity:1" fill="#4b9b8b" d="M 172.5,142.5 C 172.5,164.167 172.5,185.833 172.5,207.5C 172.067,210.195 170.734,212.362 168.5,214C 160.173,214.5 151.84,214.666 143.5,214.5C 143.5,212.167 143.5,209.833 143.5,207.5C 149.537,207.829 155.537,207.496 161.5,206.5C 162.531,205.3 163.365,203.966 164,202.5C 164.5,186.837 164.667,171.17 164.5,155.5C 165.822,155.67 166.989,155.337 168,154.5C 170.028,150.568 171.528,146.568 172.5,142.5 Z"/></g>
<g><path style="opacity:1" fill="#b6ccc3" d="M 130.5,196.5 C 133.167,196.5 135.833,196.5 138.5,196.5C 138.335,199.518 138.502,202.518 139,205.5C 140.11,207.037 141.61,207.703 143.5,207.5C 143.5,209.833 143.5,212.167 143.5,214.5C 140.482,214.665 137.482,214.498 134.5,214C 132.251,212.648 130.584,210.815 129.5,208.5C 129.183,204.298 129.517,200.298 130.5,196.5 Z"/></g>
<g><path style="opacity:1" fill="#588074" d="M 348.5,177.5 C 351.287,176.523 354.287,176.19 357.5,176.5C 357.83,194.008 357.497,211.341 356.5,228.5C 356.5,211.5 356.5,194.5 356.5,177.5C 353.833,177.5 351.167,177.5 348.5,177.5 Z"/></g>
<g><path style="opacity:1" fill="#1c3742" d="M 375.5,348.5 C 373.97,352.787 372.636,356.787 371.5,360.5C 351.337,359.668 331.004,359.168 310.5,359C 307.922,356.772 306.589,353.939 306.5,350.5C 306.5,344.167 306.5,337.833 306.5,331.5C 305.019,329.753 303.019,328.586 300.5,328C 302.708,327.809 304.708,327.309 306.5,326.5C 306.5,326.167 306.5,325.833 306.5,325.5C 306.5,314.5 306.5,303.5 306.5,292.5C 306.5,292.167 306.5,291.833 306.5,291.5C 308.054,290.105 307.721,289.439 305.5,289.5C 304.558,289.608 303.725,289.941 303,290.5C 300.595,289.726 298.095,289.226 295.5,289C 295.833,288.667 296.167,288.333 296.5,288C 292.671,286.071 292.671,285.237 296.5,285.5C 299.833,285.5 303.167,285.5 306.5,285.5C 306.667,273.829 306.5,262.162 306,250.5C 304.127,248.291 301.96,246.458 299.5,245C 292.919,244.813 286.419,244.313 280,243.5C 279.5,229.504 279.333,215.504 279.5,201.5C 285.758,201.19 291.924,201.524 298,202.5C 302.725,214.283 307.725,225.949 313,237.5C 313.333,272.5 313.667,307.5 314,342.5C 315.01,346.843 317.51,350.01 321.5,352C 338.833,352.667 356.167,352.667 373.5,352C 374.085,350.698 374.751,349.531 375.5,348.5 Z"/></g>
<g><path style="opacity:1" fill="#a2c9af" d="M 348.5,177.5 C 351.167,177.5 353.833,177.5 356.5,177.5C 356.5,194.5 356.5,211.5 356.5,228.5C 356.5,229.5 356.5,230.5 356.5,231.5C 355.599,232.29 354.932,233.29 354.5,234.5C 353.038,235.458 351.705,236.624 350.5,238C 349.207,238.49 347.873,238.657 346.5,238.5C 341.5,239.5 339.5,237.5 340.5,232.5C 341.791,232.737 342.791,232.404 343.5,231.5C 345.451,230.718 346.951,229.384 348,227.5C 348.5,210.837 348.667,194.17 348.5,177.5 Z"/></g>
<g><path style="opacity:1" fill="#6aaa98" d="M 211.5,171.5 C 213.167,171.5 214.833,171.5 216.5,171.5C 216.5,186.833 216.5,202.167 216.5,217.5C 215.768,218.808 214.934,220.142 214,221.5C 212.575,220.788 211.075,220.621 209.5,221C 209.833,220.667 210.167,220.333 210.5,220C 209.877,217.393 209.21,214.893 208.5,212.5C 208.5,199.167 208.5,185.833 208.5,172.5C 209.391,171.89 210.391,171.557 211.5,171.5 Z"/></g>
<g><path style="opacity:1" fill="#617176" d="M 189.5,172.5 C 188.502,207.996 188.168,243.663 188.5,279.5C 187.17,243.664 187.17,207.664 188.5,171.5C 189.107,171.624 189.44,171.957 189.5,172.5 Z"/></g>
<g><path style="opacity:1" fill="#f5f7f7" d="M 129.5,244.5 C 137.174,244.334 144.841,244.5 152.5,245C 155.171,246.25 157.337,248.083 159,250.5C 160.471,267.405 160.971,284.405 160.5,301.5C 156.833,301.5 153.167,301.5 149.5,301.5C 149.667,286.163 149.5,270.83 149,255.5C 142.59,254.522 136.09,254.189 129.5,254.5C 129.5,251.167 129.5,247.833 129.5,244.5 Z"/></g>
<g><path style="opacity:1" fill="#49968a" d="M 341.5,246.5 C 341.5,246.833 341.5,247.167 341.5,247.5C 341.5,249.833 341.5,252.167 341.5,254.5C 332.23,253.575 328.23,248.575 329.5,239.5C 333.517,241.861 337.517,244.194 341.5,246.5 Z"/></g>
<g><path style="opacity:1" fill="#3f9486" d="M 208.5,212.5 C 209.21,214.893 209.877,217.393 210.5,220C 210.167,220.333 209.833,220.667 209.5,221C 211.075,220.621 212.575,220.788 214,221.5C 214.934,220.142 215.768,218.808 216.5,217.5C 216.333,233.17 216.5,248.837 217,264.5C 218.736,267.739 221.236,270.073 224.5,271.5C 219.604,273.446 214.271,274.113 208.5,273.5C 208.5,253.167 208.5,232.833 208.5,212.5 Z"/></g>
<g><path style="opacity:1" fill="#a2c9af" d="M 341.5,247.5 C 345.167,247.5 348.833,247.5 352.5,247.5C 352.5,247.833 352.5,248.167 352.5,248.5C 351.883,248.611 351.383,248.944 351,249.5C 349.228,277.806 348.395,306.14 348.5,334.5C 347.167,334.5 345.833,334.5 344.5,334.5C 344.831,307.661 344.498,280.995 343.5,254.5C 342.833,254.5 342.167,254.5 341.5,254.5C 341.5,252.167 341.5,249.833 341.5,247.5 Z"/></g>
<g><path style="opacity:1" fill="#204749" d="M 200.5,172.5 C 203.167,172.5 205.833,172.5 208.5,172.5C 208.5,185.833 208.5,199.167 208.5,212.5C 208.5,232.833 208.5,253.167 208.5,273.5C 207.502,240.338 207.168,207.004 207.5,173.5C 204.941,173.802 202.607,173.468 200.5,172.5 Z"/></g>
<g><path style="opacity:1" fill="#132e3c" d="M 368.5,256.5 C 371.167,256.5 373.833,256.5 376.5,256.5C 375.926,283.976 375.926,311.976 376.5,340.5C 375.209,340.263 374.209,340.596 373.5,341.5C 366.825,341.666 360.158,341.5 353.5,341C 357.833,340.667 362.167,340.333 366.5,340C 361.322,339.403 356.322,339.07 351.5,339C 352.5,338 353.5,337 354.5,336C 353.505,309.908 353.172,283.741 353.5,257.5C 355.167,257.5 356.833,257.5 358.5,257.5C 358.333,284.169 358.5,310.835 359,337.5C 360.159,338.566 360.992,338.233 361.5,336.5C 363.833,336.5 366.167,336.5 368.5,336.5C 368.5,309.833 368.5,283.167 368.5,256.5 Z"/></g>
<g><path style="opacity:1" fill="#bcc2c5" d="M 132.5,262.5 C 132.5,262.833 132.5,263.167 132.5,263.5C 130.508,291.48 129.842,319.814 130.5,348.5C 129.502,320.005 129.169,291.338 129.5,262.5C 130.5,262.5 131.5,262.5 132.5,262.5 Z"/></g>
<g><path style="opacity:1" fill="#162f3c" d="M 296.5,273.5 C 296.5,277.5 296.5,281.5 296.5,285.5C 292.671,285.237 292.671,286.071 296.5,288C 296.167,288.333 295.833,288.667 295.5,289C 298.095,289.226 300.595,289.726 303,290.5C 303.725,289.941 304.558,289.608 305.5,289.5C 307.721,289.439 308.054,290.105 306.5,291.5C 303.167,291.5 299.833,291.5 296.5,291.5C 296.5,303.167 296.5,314.833 296.5,326.5C 299.833,326.5 303.167,326.5 306.5,326.5C 304.708,327.309 302.708,327.809 300.5,328C 303.019,328.586 305.019,329.753 306.5,331.5C 303.167,331.5 299.833,331.5 296.5,331.5C 296.175,338.687 296.509,345.687 297.5,352.5C 298.076,358.815 301.076,363.649 306.5,367C 323.497,367.5 340.497,367.667 357.5,367.5C 357.5,367.833 357.5,368.167 357.5,368.5C 335.568,368.054 313.901,368.721 292.5,370.5C 283.446,370.076 274.446,369.242 265.5,368C 226.665,367.833 187.998,367.333 149.5,366.5C 192.227,366.984 234.894,366.484 277.5,365C 283.608,361.554 287.441,356.387 289,349.5C 289.5,334.17 289.667,318.837 289.5,303.5C 290.478,303.189 291.145,302.522 291.5,301.5C 290.268,294.016 290.268,286.849 291.5,280C 292.449,279.383 293.282,279.549 294,280.5C 295.678,279.318 295.512,278.152 293.5,277C 294.371,275.636 295.371,274.47 296.5,273.5 Z"/></g>
<g><path style="opacity:1" fill="#fefefe" d="M 306.5,292.5 C 306.5,303.5 306.5,314.5 306.5,325.5C 303.5,325.5 300.5,325.5 297.5,325.5C 297.5,314.5 297.5,303.5 297.5,292.5C 300.5,292.5 303.5,292.5 306.5,292.5 Z"/></g>
<g><path style="opacity:1" fill="#1c3641" d="M 129.5,222.5 C 129.5,225.5 129.5,228.5 129.5,231.5C 141.505,231.333 153.505,231.5 165.5,232C 166.333,232.833 167.167,233.667 168,234.5C 168.333,257.167 168.667,279.833 169,302.5C 169.096,307.819 171.263,311.986 175.5,315C 203.165,315.5 230.831,315.667 258.5,315.5C 258.795,322.226 258.462,328.892 257.5,335.5C 226.172,336.667 194.839,336.833 163.5,336C 162.667,335.167 161.833,334.333 161,333.5C 160.5,324.84 160.334,316.173 160.5,307.5C 156.833,307.5 153.167,307.5 149.5,307.5C 149.334,317.506 149.5,327.506 150,337.5C 150.7,341.066 152.533,343.9 155.5,346C 191.833,346.667 228.167,346.667 264.5,346C 265.705,344.624 267.038,343.458 268.5,342.5C 272.294,341.331 274.961,342.665 276.5,346.5C 275.476,350.362 273.143,353.195 269.5,355C 229.833,355.667 190.167,355.667 150.5,355C 145.449,352.28 142.282,348.113 141,342.5C 140.667,317.833 140.333,293.167 140,268.5C 138.143,265.8 135.643,264.134 132.5,263.5C 132.5,263.167 132.5,262.833 132.5,262.5C 131.791,261.596 130.791,261.263 129.5,261.5C 129.5,259.167 129.5,256.833 129.5,254.5C 136.09,254.189 142.59,254.522 149,255.5C 149.5,270.83 149.667,286.163 149.5,301.5C 153.167,301.5 156.833,301.5 160.5,301.5C 160.971,284.405 160.471,267.405 159,250.5C 157.337,248.083 155.171,246.25 152.5,245C 144.841,244.5 137.174,244.334 129.5,244.5C 128.943,239.989 128.276,235.489 127.5,231C 128.035,228.004 128.702,225.171 129.5,222.5 Z"/></g>
<g><path style="opacity:1" fill="#85b39a" d="M 352.5,248.5 C 352.5,251.167 352.5,253.833 352.5,256.5C 352.5,282.833 352.5,309.167 352.5,335.5C 349.5,335.5 346.5,335.5 343.5,335.5C 343.5,308.5 343.5,281.5 343.5,254.5C 344.498,280.995 344.831,307.661 344.5,334.5C 345.833,334.5 347.167,334.5 348.5,334.5C 348.395,306.14 349.228,277.806 351,249.5C 351.383,248.944 351.883,248.611 352.5,248.5 Z"/></g>
<g><path style="opacity:1" fill="#8e9fa0" d="M 306.5,291.5 C 306.5,291.833 306.5,292.167 306.5,292.5C 303.5,292.5 300.5,292.5 297.5,292.5C 297.5,303.5 297.5,314.5 297.5,325.5C 300.5,325.5 303.5,325.5 306.5,325.5C 306.5,325.833 306.5,326.167 306.5,326.5C 303.167,326.5 299.833,326.5 296.5,326.5C 296.5,314.833 296.5,303.167 296.5,291.5C 299.833,291.5 303.167,291.5 306.5,291.5 Z"/></g>
<g><path style="opacity:1" fill="#266761" d="M 368.5,256.5 C 368.5,283.167 368.5,309.833 368.5,336.5C 366.167,336.5 363.833,336.5 361.5,336.5C 360.508,336.672 359.842,336.338 359.5,335.5C 362.167,335.5 364.833,335.5 367.5,335.5C 367.169,308.995 367.502,282.661 368.5,256.5 Z"/></g>
<g><path style="opacity:1" fill="#35847c" d="M 182.5,322.5 C 205.833,322.5 229.167,322.5 252.5,322.5C 252.5,325.167 252.5,327.833 252.5,330.5C 224.328,330.831 196.328,330.498 168.5,329.5C 173.167,329.5 177.833,329.5 182.5,329.5C 182.5,327.167 182.5,324.833 182.5,322.5 Z"/></g>
<g><path style="opacity:1" fill="#afcbc3" d="M 182.5,322.5 C 182.5,324.833 182.5,327.167 182.5,329.5C 177.833,329.5 173.167,329.5 168.5,329.5C 168.5,326.833 168.5,324.167 168.5,321.5C 173.363,321.181 178.03,321.514 182.5,322.5 Z"/></g>
<g><path style="opacity:1" fill="#255958" d="M 306.5,331.5 C 306.5,337.833 306.5,344.167 306.5,350.5C 305.51,344.69 305.177,338.69 305.5,332.5C 302.833,332.5 300.167,332.5 297.5,332.5C 297.5,339.167 297.5,345.833 297.5,352.5C 296.509,345.687 296.175,338.687 296.5,331.5C 299.833,331.5 303.167,331.5 306.5,331.5 Z"/></g>
<g><path style="opacity:1" fill="#429187" d="M 306.5,350.5 C 306.589,353.939 307.922,356.772 310.5,359C 331.004,359.168 351.337,359.668 371.5,360.5C 367.699,364.4 363.033,366.734 357.5,367.5C 340.497,367.667 323.497,367.5 306.5,367C 301.076,363.649 298.076,358.815 297.5,352.5C 297.5,345.833 297.5,339.167 297.5,332.5C 300.167,332.5 302.833,332.5 305.5,332.5C 305.177,338.69 305.51,344.69 306.5,350.5 Z"/></g>
<g><path style="opacity:1" fill="#132433" d="M 133.5,136.5 C 131.688,138.461 130.688,140.794 130.5,143.5C 129.504,158.991 129.17,174.658 129.5,190.5C 131.167,190.5 132.833,190.5 134.5,190.5C 133.282,191.161 131.949,191.828 130.5,192.5C 131.807,193.865 131.807,195.198 130.5,196.5C 129.517,200.298 129.183,204.298 129.5,208.5C 130.033,212.312 129.366,216.145 127.5,220C 131.025,220.179 134.359,220.679 137.5,221.5C 134.615,221.194 131.948,221.527 129.5,222.5C 128.702,225.171 128.035,228.004 127.5,231C 128.276,235.489 128.943,239.989 129.5,244.5C 129.5,247.833 129.5,251.167 129.5,254.5C 129.5,256.833 129.5,259.167 129.5,261.5C 130.791,261.263 131.791,261.596 132.5,262.5C 131.5,262.5 130.5,262.5 129.5,262.5C 129.169,291.338 129.502,320.005 130.5,348.5C 132.962,358.629 139.295,364.629 149.5,366.5C 187.998,367.333 226.665,367.833 265.5,368C 274.446,369.242 283.446,370.076 292.5,370.5C 313.901,368.721 335.568,368.054 357.5,368.5C 356.602,369.158 355.602,369.824 354.5,370.5C 355.989,370.533 357.322,371.033 358.5,372C 357.24,373.113 356.073,373.28 355,372.5C 354.251,373.635 354.417,374.635 355.5,375.5C 356.086,375.291 356.586,374.957 357,374.5C 359.069,375.264 361.236,375.764 363.5,376C 363.957,376.414 364.291,376.914 364.5,377.5C 363.167,378.167 361.833,378.833 360.5,379.5C 360.709,380.086 361.043,380.586 361.5,381C 360.417,383.056 358.75,384.389 356.5,385C 356.833,385.333 357.167,385.667 357.5,386C 287.332,386.167 217.332,386.667 147.5,387.5C 127.149,381.817 115.816,368.484 113.5,347.5C 113.5,282.5 113.5,217.5 113.5,152.5C 115.068,153.869 116.901,154.869 119,155.5C 121.521,152.685 123.187,153.018 124,156.5C 125.164,153.397 126.33,149.897 127.5,146C 127.043,145.586 126.709,145.086 126.5,144.5C 128.204,142.398 129.537,140.065 130.5,137.5C 131.325,136.614 132.325,136.281 133.5,136.5 Z"/></g>
<g><path style="opacity:0.298" fill="#011a0b" d="M 383.5,374.5 C 379.023,380.234 373.356,384.234 366.5,386.5C 365.761,386.631 365.094,386.464 364.5,386C 371.739,383.429 377.905,379.263 383,373.5C 383.399,373.728 383.565,374.062 383.5,374.5 Z"/></g>
<g><path style="opacity:0.813" fill="#0c282a" d="M 147.5,388.5 C 147.5,388.167 147.5,387.833 147.5,387.5C 214.833,387.5 282.167,387.5 349.5,387.5C 284.833,388.167 220.167,388.833 155.5,389.5C 152.763,389.599 150.096,389.265 147.5,388.5 Z"/></g>
<g><path style="opacity:0.083" fill="#0b1819" d="M 363.5,387.5 C 361.708,388.309 359.708,388.809 357.5,389C 290.167,389.5 222.834,389.667 155.5,389.5C 220.167,388.833 284.833,388.167 349.5,387.5C 354.39,387.277 359.057,387.277 363.5,387.5 Z"/></g>
</svg>
